# xmcd
#
# Track frame offsets:
#	150
#	17843
#	33104
#	45275
#	57666
#	72645
#	91563
#	107378
#	130705
#	143322
#	156651
#	172360
#	190246
#	203432
#	212048
#
# Disc length: 2915 seconds
#
# Revision: 0
# Processed by: cddbd v1.5.2PL0 Copyright (c) Steve Scherf et al.
# Submitted via: EasyCDDAExtractor 2010.6.0.0
#
DISCID=c90b610f
DTITLE=Neil Nathan - The Distance Calls
DYEAR=1900
DGENRE=
TTITLE0=Do Ya
TTITLE1=California Run
TTITLE2=When The Rain Falls
TTITLE3=Highways
TTITLE4=So Much More
TTITLE5=Get On
TTITLE6=Don't Walk Away
TTITLE7=Disappear
TTITLE8=Never Enough
TTITLE9=Too Late
TTITLE10=Eyes Wide Open
TTITLE11=Sweet Darlin'
TTITLE12=Better Be Goin'
TTITLE13=Far Off
TTITLE14=To You (A Happy Birthday Song) Bonus Track
EXTD=
EXTT0=
EXTT1=
EXTT2=
EXTT3=
EXTT4=
EXTT5=
EXTT6=
EXTT7=
EXTT8=
EXTT9=
EXTT10=
EXTT11=
EXTT12=
EXTT13=
EXTT14=
PLAYORDER=
